<svg id="Layer_1" data-name="Layer 1" xmlns="http://www.w3.org/2000/svg" viewBox="0 0 709.08 99.4"><defs><style>.cls-1{fill:#c8b18b;}.cls-2{fill:#002d62;}</style></defs><title>AE logo_2c</title><path class="cls-1" d="M42.71,317.44c12.58-6.57,30.71-11.76,51.19-13.93,39.84-4.23,72.51,2,74.11,17.07,0,0.12,0,.25,0,0.37a43.37,43.37,0,0,1-3.75,7c1-2,1.19-3.69.51-5-3.29-6.26-26.14-.73-51,12.36a164.59,164.59,0,0,0-27.4,17.74C64.77,347.87,48,334.34,42.71,317.44Z" transform="translate(-41.46 -256.3)"/><path class="cls-2" d="M160.09,326.16c1.55,1.41,1.52,3.87.2,7-11.66,13.37-31.62,22.18-54.28,22.18q-2.79,0-5.51-.18c3-2.6,6.25-5.21,9.71-7.81C132.35,330.74,154.68,321.24,160.09,326.16Z" transform="translate(-41.46 -256.3)"/><path class="cls-2" d="M109.14,292.14c-30.25-2.08-55,.13-67.68,7.23,4.16-24.3,31.47-43.08,64.55-43.08,36,0,65.12,22.18,65.12,49.53a38.36,38.36,0,0,1-.72,7.38C162.42,302.31,137.1,294.06,109.14,292.14Z" transform="translate(-41.46 -256.3)"/><path class="cls-2" d="M228.71,329.61h5.48v1.91H211.1v-1.91h6.78l-4.26-12.13H197.53l-2.81,8.09a9.66,9.66,0,0,0-.65,2.72c0,1.32,1.15,1.32,2.82,1.32h3.54v1.91H184.54v-1.91h3.17c3.1-.3,3.18-0.59,5-5.15l16-44.85h2.38Zm-15.81-14L205.47,295l-7.29,20.59H212.9Z" transform="translate(-41.46 -256.3)"/><path class="cls-2" d="M248.55,305.49c2.09-2.5,4.76-5.66,10.4-5.66,6.49,0,8.3,3.23,10,6.4a11.7,11.7,0,0,1,10.83-6.32c9.53,0,9.6,6.47,9.81,10.44v19.27H294v1.91h-17.4v-1.91h4v-19c0-3.75,0-7.35-4.11-7.35a7.16,7.16,0,0,0-4.77,2.21c-2.67,2.64-2.81,6-2.81,9.85v14.34h4.33v1.91h-17v-1.91h3.9V310.94c0-4.2-.43-7.65-4.33-7.65a7,7,0,0,0-5.27,2.65c-1.73,2.21-1.87,4.63-2.09,8.09v15.59H253v1.91H234.77v-1.91h4.76V302.7h-4.76v-1.91c8.23,0,9.74-.15,13.78-0.66v5.37Z" transform="translate(-41.46 -256.3)"/><path class="cls-2" d="M304.05,314.17c0,1.91-.07,3.83,0,5.81,0.07,2.79.29,10.15,7.51,10.15,6.13,0,9.16-5,11-7.94l1.8,0.88c-1.66,3.23-5,9.34-13.71,9.34-10.25,0-16.52-7.43-16.52-16.33,0-9.19,6.57-16.18,15.95-16.18a14.49,14.49,0,0,1,10.75,4.56c2.89,3.17,3.39,6.4,3.89,9.71H304.05ZM304.2,312h11v-4.26c-0.21-2.57-.43-6.18-5.12-6.18-5.05,0-5.49,3.53-5.77,6.47Z" transform="translate(-41.46 -256.3)"/><path class="cls-2" d="M339.34,306.45a22,22,0,0,1,2.24-3.31,8.3,8.3,0,0,1,6.72-3.23,5.93,5.93,0,0,1,6.35,6.1c0,2.06-1.15,5-4.83,5a4.39,4.39,0,0,1-4.62-4.34,4.32,4.32,0,0,1,.94-2.72,2.27,2.27,0,0,0,.36-0.73,1,1,0,0,0-1-.74c-1,0-3.32,3-3.32,3a17.7,17.7,0,0,0-2.89,10.15v14h6v1.91h-20v-1.91h4.91V302.7h-4.91v-1.91a130.86,130.86,0,0,0,14.22-.66Z" transform="translate(-41.46 -256.3)"/><path class="cls-2" d="M357.17,300.79c3.25,0,5-.07,6.86-0.15s3.68-.29,7.07-0.51v29.49h4.62v1.91H357.17v-1.91h4.91V302.7h-4.91v-1.91ZM365.61,282a5.29,5.29,0,1,1-5.19,5.29A5.22,5.22,0,0,1,365.61,282Z" transform="translate(-41.46 -256.3)"/><path class="cls-2" d="M407,323.51c-1.66,3.08-4.76,8.82-13.58,8.82-9.88,0-16.16-6.54-16.16-15.52,0-11.39,8.59-16.91,16.74-16.91,6.5,0,11.84,3.38,11.84,8.46a4.77,4.77,0,0,1-9.53.07c0-2.43,1.59-3.9,2.89-5.07a7,7,0,0,0-4.62-1.54,6.12,6.12,0,0,0-6,3.9c-1.23,2.57-1.23,10.52-1.23,10.52,0,1.91.14,3.82,0.29,5.59,0.21,2.13.57,5.66,3.67,7.42a6.57,6.57,0,0,0,3.47.89c5.77,0,8.66-4.85,10.32-7.72Z" transform="translate(-41.46 -256.3)"/><path class="cls-2" d="M435,324.32c0,1.7.07,3.83,1.81,3.83A3.85,3.85,0,0,0,439,327l1.16,1.62c-1.3,1.39-3.54,3.68-7.07,3.68-4.12,0-5.7-3.16-6.64-5.07a12.75,12.75,0,0,1-10.1,5.07c-7.43,0-8.52-5.15-8.52-7.43a9.6,9.6,0,0,1,4.19-7.72c4-3,10-3.53,14.43-4V307.4c0-3.09-.21-5.59-5.05-5.59-3.25,0-4.33,1.47-4.33,2.13a1.68,1.68,0,0,0,.22.8c0.22,0.6.65,1,.87,1.62a3.39,3.39,0,0,1,.36,1.47A4,4,0,0,1,414.4,312a3.88,3.88,0,0,1-4-4c0-4.7,5.63-8,12.63-8a18.87,18.87,0,0,1,7.21,1.33c4.91,2.13,4.84,5.73,4.84,8.31v14.78Zm-8.59-9c-3.82.22-10.1,0.59-10.1,7.13,0,3.68,2.38,5.66,4.91,5.66a5.23,5.23,0,0,0,3.17-1.18c2.09-1.76,2-4,2-6v-5.66Z" transform="translate(-41.46 -256.3)"/><path class="cls-2" d="M454.53,305.56A13.4,13.4,0,0,1,460.3,301a14.34,14.34,0,0,1,5.49-1.1,14.19,14.19,0,0,1,4.11.59c5.85,1.69,5.85,6.25,5.85,9.49v19.63h4.77v1.91H462.75v-1.91h4V311.37c0-4.11,0-8.09-4.4-8.09-2.53,0-6.57,2.5-7.58,6.69a28.34,28.34,0,0,0-.29,6v13.68h4.62v1.91H440.6v-1.91h4.91V302.7H440.6v-1.91c4.4,0,8.59-.44,13.93-0.66v5.44Z" transform="translate(-41.46 -256.3)"/><path class="cls-2" d="M480,279.74l34.37,0-2.88,8.56H491.23v12.23l20.25,0-2.18,8.41H491.24v13.95h23l-2.63,8.63-31.58,0Z" transform="translate(-41.46 -256.3)"/><path class="cls-2" d="M525.7,297.94l0.2,5c2.54-4.08,5.88-5.82,10.83-5.82,7.49,0,11,4.21,11,12.77v21.6h-9.63V311.24c0-4.75-1.4-7-5.48-7-3.68,0-6.22,2.54-6.22,6.62v20.66h-9.63v-31Z" transform="translate(-41.46 -256.3)"/><path class="cls-2" d="M550.84,297.94v-2.23l9.69-5v7.26h7.75v6.62h-7.82v16.38c0,2.47,1.34,3.81,3.68,3.81a19.6,19.6,0,0,0,4.07-.47v6.89a38.58,38.58,0,0,1-8.56,1c-6.29,0-8.82-3-8.82-9.42v-24.8Z" transform="translate(-41.46 -256.3)"/><path class="cls-2" d="M583.75,332.23c-9.82,0-15.64-6.28-15.64-17.18,0-11.5,6-17.92,16.12-17.92,9.49,0,15,6.22,15,17.45,0,0.73,0,1.47-.07,2.21H577.47c0.07,6,2.15,9,6.22,9,3.21,0,5.08-1.53,5.82-4.74h8.62C597.59,328,592.31,332.23,583.75,332.23Zm5.48-21.66c-0.07-4.81-1.94-7.29-5.68-7.29-3.28,0-5.55,2.61-5.82,7.29h11.5Z" transform="translate(-41.46 -256.3)"/><path class="cls-2" d="M608.9,297.94l0.34,6c1.74-4.14,5.48-6.28,11-6.28h0.27v8.82c-0.74-.06-1.47-0.13-2.14-0.13-5.15,0-8.16,2.67-8.16,7v18.12h-9.89v-31.1Z" transform="translate(-41.46 -256.3)"/><path class="cls-2" d="M631.26,297.94l0.34,4.81a11.58,11.58,0,0,1,10.09-5.48c7.89,0,13.71,6.62,13.71,17.45s-5.62,17.38-13.57,17.38a11.35,11.35,0,0,1-10.1-5.21v28.45l-9.69,0v-55Zm7.42,5.74c-4.28,0-7.15,4-7.15,11s2.88,11,7.15,11,6.82-3.88,6.82-11S642.9,303.68,638.68,303.68Z" transform="translate(-41.46 -256.3)"/><path class="cls-2" d="M664.87,297.94l0.34,6c1.74-4.14,5.48-6.28,11-6.28h0.26v8.82c-0.73-.06-1.47-0.13-2.13-0.13-5.15,0-8.16,2.67-8.16,7v18.12h-9.89v-31.1Z" transform="translate(-41.46 -256.3)"/><rect class="cls-2" x="637.39" y="41.64" width="9.76" height="33.56"/><path class="cls-2" d="M699.53,321.4c0.13,3,1.8,4.41,5.42,4.41,3.21,0,5-1.47,5-3.81,0-3.28-3.28-3.48-8.63-5-7-1.87-10.23-4.48-10.23-9.7,0-5.68,5.28-10.22,14.25-10.22,7.75,0,12.43,3.68,12.43,9.36v0.27h-8.55c-0.34-2.6-1.87-3.87-4.69-3.87s-4.67,1.47-4.67,3.41c0,2.74,3.14,3,8.75,4.41,7.29,1.81,10.63,4.55,10.63,9.9,0,6.42-5.82,11.7-14.64,11.7-9,0-14-3.95-14.18-10.9h9.09Z" transform="translate(-41.46 -256.3)"/><path class="cls-2" d="M735.09,332.23c-9.82,0-15.64-6.28-15.64-17.18,0-11.5,5.94-17.92,16.11-17.92,9.5,0,15,6.22,15,17.45,0,0.73,0,1.47-.07,2.21H728.81c0.06,6,2.14,9,6.21,9,3.22,0,5.08-1.53,5.83-4.74h8.62C748.94,328,743.65,332.23,735.09,332.23Zm5.48-21.66c-0.06-4.81-1.94-7.29-5.68-7.29-3.28,0-5.55,2.61-5.82,7.29h11.49Z" transform="translate(-41.46 -256.3)"/><polygon class="cls-2" points="637.45 39.94 647.15 39.94 647.15 31.19 637.45 39.94"/><path class="cls-2" d="M492.36,354.42a10.58,10.58,0,0,1-5.12,1.28,6.93,6.93,0,0,1-7.31-7.19,7.05,7.05,0,0,1,7.36-7.19,6.58,6.58,0,0,1,4.83,1.8l-1.22,1.28a5.12,5.12,0,0,0-3.73-1.57,5.68,5.68,0,0,0,.15,11.36,8.05,8.05,0,0,0,3.4-.79v-4.2h-3.15v-1.5h4.78v6.72Z" transform="translate(-41.46 -256.3)"/><path class="cls-2" d="M499.56,341.67h3.5c2.65,0,5.45.38,5.45,3.77,0,2-1.29,3.28-3.42,3.61l3.88,6.3h-2l-3.71-6.15h-2.09v6.15h-1.62V341.67Zm1.62,6h1.45c1.79,0,4.13,0,4.13-2.26,0-2-1.72-2.26-3.3-2.26h-2.28v4.52Z" transform="translate(-41.46 -256.3)"/><path class="cls-2" d="M514.5,348.51a7.15,7.15,0,1,1,7.15,7.19A6.95,6.95,0,0,1,514.5,348.51Zm12.56,0a5.42,5.42,0,1,0-5.41,5.68A5.41,5.41,0,0,0,527.06,348.51Z" transform="translate(-41.46 -256.3)"/><path class="cls-2" d="M544.9,350.14c0,3-1.4,5.56-5.16,5.56s-5.16-2.59-5.16-5.56v-8.46h1.63v8.23c0,2.2.81,4.29,3.54,4.29s3.54-2.09,3.54-4.29v-8.23h1.63v8.46Z" transform="translate(-41.46 -256.3)"/><path class="cls-2" d="M551.47,341.67h4.06c2.51,0,4.79.89,4.79,3.75s-2.55,3.79-4.48,3.79h-2.74v6.15h-1.62V341.67Zm1.62,6h2.74c1.62,0,2.74-.74,2.74-2.26s-1.12-2.26-2.74-2.26h-2.74v4.52Z" transform="translate(-41.46 -256.3)"/><path class="cls-2" d="M574.16,341.67h1.62v13.68h-1.62V341.67Z" transform="translate(-41.46 -256.3)"/><path class="cls-2" d="M582.54,341.67h2L592.52,353h0V341.67h1.62v13.68h-2L584.21,344h0v11.36h-1.62V341.67Z" transform="translate(-41.46 -256.3)"/><path class="cls-2" d="M610.53,344.49a4.21,4.21,0,0,0-3.42-1.66,5.44,5.44,0,0,0-5.22,5.68c0,3.17,2.14,5.68,5.22,5.68a4.81,4.81,0,0,0,4-1.91l1.22,1a6.08,6.08,0,0,1-5.18,2.39,7.19,7.19,0,0,1,0-14.38,5.93,5.93,0,0,1,4.83,2.14Z" transform="translate(-41.46 -256.3)"/><path class="cls-2" d="M616.62,354.31a1.16,1.16,0,1,1-2.32,0A1.16,1.16,0,0,1,616.62,354.31Z" transform="translate(-41.46 -256.3)"/></svg>